<svg viewBox="0 0 81.33 68.62" xmlns="http://www.w3.org/2000/svg"><path d="m81.33 4.18v64.44h-15.52v-49.88c.07-.45-.1-.89-.44-1.12-.17-.12-.38-.18-.6-.18-.33 0-.68.14-.93.43 0 0-17.63 17.53-19.5 19.44t0 0c-.59.6-.97 1.26-.97 2.11 0 .74.35 1.34.76 1.91s11.81 17.76 12.42 18.66c1.35 2.01 1.92 3.94 1.11 5.78-.92 2.1-3.08 2.76-3.42 2.86h-27.04c-.34-.1-2.5-.76-3.42-2.86-.81-1.84-.18-3.96 1.11-5.78.6-.84 12.25-18.6 12.25-18.6.48-.63.83-1.2.83-1.98 0-.86-.42-1.46-1-2.14-2.31-2.27-19.48-19.41-19.48-19.41-.25-.29-.59-.43-.93-.43-.21 0-.42.06-.6.18-.34.23-.51.67-.44 1.12v49.89h-15.52v-64.44c0-2.31 1.87-4.18 4.18-4.18h11.06c1.84 0 3.61.73 4.91 2.04l16.17 16.17c2.4 2.4 6.29 2.4 8.69 0l16.17-16.17c1.3-1.3 3.07-2.04 4.91-2.04h11.06c2.31 0 4.18 1.87 4.18 4.18z" fill="#6c757d"/></svg>