<?xml version="1.0" encoding="UTF-8"?>
<svg id="Layer_2" data-name="Layer 2" xmlns="http://www.w3.org/2000/svg" viewBox="0 0 449.73 133.65">
  <defs>
    <style>
      .cls-1 {
        fill: #6c757d;
      }

      .cls-2 {
        fill: #fff;
      }

      .cls-3 {
        opacity: .8;
      }
    </style>
  </defs>
  <g id="Layer_1-2" data-name="Layer 1">
    <g>
      <g class="cls-3">
        <path class="cls-2" d="M201.73,9.03h14.14l9.48,38.56h.07l8.89-38.56h14.36v53.94h-10.5V25.06h-.15c-.36,3.64-1.89,9.99-2.77,13.27l-6.41,24.64h-8.24l-6.27-24.64c-.66-2.55-2.33-9.62-2.77-13.56h-.15v38.19h-9.69V9.03Z"/>
        <path class="cls-2" d="M255.02,43.58c0-14.58,8.24-20.26,17.13-20.26s17.13,5.69,17.13,20.26-8.31,20.19-17.13,20.19-17.13-5.76-17.13-20.19ZM278.49,43.58c0-7.29-1.68-11.74-6.34-11.74s-6.34,3.86-6.34,11.74c0,7.36,1.6,11.95,6.34,11.95,4.45,0,6.34-3.94,6.34-11.95Z"/>
        <path class="cls-2" d="M294.75,24.12h10.79v5.39c1.97-2.77,6.05-6.2,11.08-6.2s7.95,2.19,8.89,6.2c2.11-2.84,6.27-6.2,11.23-6.2,6.49,0,9.48,3.79,9.48,10.57v29.08h-10.71v-26.02c0-2.99-.66-4.52-3.35-4.52-2.26,0-4.45,1.75-6.27,3.5v27.04h-10.79v-26.02c0-2.99-.66-4.52-3.21-4.52-2.33,0-4.45,1.68-6.34,3.5v27.04h-10.79V24.12Z"/>
        <path class="cls-2" d="M351.4,43.58c0-14.8,8.82-20.26,16.76-20.26,8.75,0,15.6,5.98,15.6,20.92v1.97h-21.79c.36,6.63,2.92,9.55,7,9.55,3.72,0,6.78-2.48,8.38-5.03l6.27,5.03c-3.35,4.88-8.02,8.02-15.16,8.02-9.33,0-17.06-5.83-17.06-20.19ZM373.99,40.08c-.37-5.83-2.33-8.53-5.83-8.53-2.99,0-5.54,2.33-6.12,8.53h11.95Z"/>
        <path class="cls-2" d="M389.23,24.12h10.79v5.39c1.9-2.7,6.05-6.2,11.59-6.2s9.4,2.7,9.4,10.2v29.45h-10.71v-26.02c0-2.99-1.02-4.52-3.5-4.52s-4.96,1.82-6.78,3.5v27.04h-10.79V24.12Z"/>
        <path class="cls-2" d="M430.71,53.27v-21.21h-5.54v-7.95h5.54v-13.34h10.71v13.34h8.31v7.95h-8.31v18.51c0,3.94.95,5.03,4.59,5.03,1.09,0,2.7-.22,3.21-.44v7.73c-.73.22-4.23.51-6.71.51-9.48,0-11.81-3.13-11.81-10.13Z"/>
        <path class="cls-2" d="M199.11,107.75c0-14.58,8.24-20.26,17.13-20.26s17.13,5.69,17.13,20.26-8.31,20.19-17.13,20.19-17.13-5.76-17.13-20.19ZM222.58,107.75c0-7.29-1.68-11.74-6.34-11.74s-6.34,3.86-6.34,11.74c0,7.36,1.6,11.95,6.34,11.95,4.45,0,6.34-3.94,6.34-11.95Z"/>
        <path class="cls-2" d="M241.25,96.23h-5.54v-7.94h5.54v-3.57c0-6.34,1.89-11.66,12.32-11.66,2.19,0,5.18.15,5.61.29v7.95c-.44-.07-2.04-.22-2.7-.22-2.55,0-4.59.58-4.59,4.16v3.06h7v7.94h-7v30.91h-10.64v-30.91Z"/>
        <path class="cls-2" d="M288.05,82.53h-12.83v-9.33h36.81v9.33h-12.9v44.61h-11.08v-44.61Z"/>
        <path class="cls-2" d="M309.7,88.29h10.79v6.27h.15c1.75-3.35,5.03-7.07,10.79-7.07.15,0,.66.07.66.07l-.15,9.84c-.29-.07-1.82-.22-2.26-.22-4.23,0-7.36,2.11-9.18,4.45v25.51h-10.79v-38.85Z"/>
        <path class="cls-2" d="M336.3,117.73v-29.45h10.72v26.31c0,2.92.95,4.45,3.57,4.45,2.48,0,4.81-1.6,6.71-3.5v-27.26h10.79v38.85h-10.79v-5.32c-2.04,2.77-6.05,6.12-11.59,6.12s-9.4-2.62-9.4-10.21Z"/>
        <path class="cls-2" d="M378.08,117.44v-21.21h-5.54v-7.94h5.54v-13.34h10.71v13.34h8.31v7.94h-8.31v18.51c0,3.94.95,5.03,4.59,5.03,1.09,0,2.7-.22,3.21-.44v7.73c-.73.22-4.23.51-6.71.51-9.48,0-11.81-3.13-11.81-10.13Z"/>
        <path class="cls-2" d="M402.13,73.2h10.79v20.48c1.89-2.7,6.05-6.2,11.59-6.2s9.4,2.7,9.4,10.21v29.45h-10.71v-26.02c0-2.99-1.02-4.52-3.5-4.52s-4.96,1.82-6.78,3.5v27.04h-10.79v-53.94Z"/>
      </g>
      <path class="cls-1" d="M158.39,8.14v125.5h-30.23V36.49c.13-.87-.2-1.72-.86-2.18-.34-.23-.74-.35-1.16-.35-.65,0-1.32.28-1.8.84,0,0-34.33,34.15-37.98,37.86t0,0c-1.16,1.17-1.89,2.46-1.89,4.1,0,1.44.68,2.62,1.49,3.72h0s23.01,34.59,24.19,36.35c2.63,3.91,3.75,7.67,2.17,11.25-1.8,4.09-6,5.37-6.66,5.57h-52.66c-.67-.19-4.87-1.48-6.66-5.57-1.58-3.59-.36-7.72,2.17-11.25,1.17-1.64,23.85-36.22,23.85-36.22.93-1.22,1.61-2.34,1.61-3.85,0-1.67-.81-2.85-1.95-4.16-4.49-4.41-37.94-37.81-37.94-37.81-.49-.56-1.16-.84-1.8-.84-.42,0-.82.12-1.16.35-.66.46-1,1.31-.86,2.18v97.16H0V8.14C0,3.64,3.64,0,8.14,0h21.53c3.59,0,7.03,1.43,9.57,3.96l31.5,31.49c4.67,4.67,12.24,4.67,16.91,0L119.15,3.96c2.54-2.54,5.98-3.96,9.57-3.96h21.53c4.5,0,8.14,3.64,8.14,8.14Z"/>
    </g>
  </g>
</svg>