<?xml version="1.0" encoding="UTF-8"?>
<svg id="Layer_2" data-name="Layer 2" xmlns="http://www.w3.org/2000/svg" viewBox="0 0 451.12 142.9">
  <defs>
    <style>
      .cls-1 {
        fill: #6c757d;
      }

      .cls-2 {
        fill: #fff;
        font-family: BentonSansCond-Bold, 'BentonSans Cond Bold';
        font-size: 72.9px;
        font-weight: 700;
        opacity: .8;
      }
    </style>
  </defs>
  <g id="Layer_1-2" data-name="Layer 1">
    <text class="cls-2" transform="translate(197.29 63.42)"><tspan x="0" y="0">Moment</tspan><tspan x="0" y="64.17">of Truth</tspan></text>
    <path class="cls-1" d="M158.39,8.59v125.5h-30.23V36.94c.13-.87-.2-1.72-.86-2.18-.34-.23-.74-.35-1.16-.35-.65,0-1.32.28-1.8.84,0,0-34.33,34.15-37.98,37.86t0,0c-1.16,1.17-1.89,2.46-1.89,4.1,0,1.44.68,2.62,1.49,3.72h0s23.01,34.59,24.19,36.35c2.63,3.91,3.75,7.67,2.17,11.25-1.8,4.09-6,5.37-6.66,5.57h-52.66c-.67-.19-4.87-1.48-6.66-5.57-1.58-3.59-.36-7.72,2.17-11.25,1.17-1.64,23.85-36.22,23.85-36.22.93-1.22,1.61-2.34,1.61-3.85,0-1.67-.81-2.85-1.95-4.16-4.49-4.41-37.94-37.81-37.94-37.81-.49-.56-1.16-.84-1.8-.84-.42,0-.82.12-1.16.35-.66.46-1,1.31-.86,2.18v97.16H0V8.59C0,4.1,3.64.45,8.14.45h21.53c3.59,0,7.03,1.43,9.57,3.96l31.5,31.49c4.67,4.67,12.24,4.67,16.91,0l31.5-31.49c2.54-2.54,5.98-3.96,9.57-3.96h21.53c4.5,0,8.14,3.64,8.14,8.14Z"/>
  </g>
</svg>